<svg xmlns="http://www.w3.org/2000/svg" xmlns:xlink="http://www.w3.org/1999/xlink" width="884" height="497" viewBox="0 0 884 497">
  <defs>
    <clipPath id="clip-_03-australia">
      <rect width="884" height="497"/>
    </clipPath>
  </defs>
  <g id="_03-australia" data-name="03-australia" clip-path="url(#clip-_03-australia)">
    <rect width="884" height="497" fill="#fff" fill-opacity="0"/>
    <g id="Trazado-circuito" transform="translate(20.5 16.301)">
      <path id="Trazado_1" data-name="Trazado 1" d="M657.6,364.442c1.412,18.874-11.2,25.6-22.065,25.988l-290.851,6.759c-4.835-.258-7.761-2.427-8.524-6.759-6.285-37.234-35.413-33.377-63.128-32.06C214.266,361.6,156,357.249,98.728,337.906c-6.628-2.339-12.139-5.235-5.971-13.952l18.47-28.874c4.079-7.742,3.121-14.941-4.891-21.377L64.005,237.278c-5.842-4.758-9.227-11.556-7.928-22.242l4.4-37.253c.85-9.151,2.757-18.112,7.835-26.5l17.143-39.7c4.1-9.66,5.907-19.853,7.3-30.142-.217-6.714,6.432-7.37,13.579-7.587,16.06.52,31.707-8.856,47.084-24.681,20.112-16.653,43.036-21.761,70.721-7.312l84.482,53.95c8.759,5.519,2.6,10.591,0,15.771-4.748,9.309-4.938,20.169,4.4,34.267l35.147,47.029c34.373,43.208,77.556,53.4,124.76,48.518l41.922-4.12a19.715,19.715,0,0,0,13.5-7.327L550.636,199.3l84.9-6.419c18.887-1.667,38.112-1.674,59.867,10.786l80.086,41.371c11.072,4.786,13.126,11.952,9.164,20.706L761.28,323.954c-7.285,17.185-19.579,23.209-36.2,19.592L667.045,329.7c-10.234-3.053-14.151.027-12.819,8.205Z" fill="none" stroke="#383838" stroke-width="20"/>
      <path id="Trazado_2" data-name="Trazado 2" d="M657.6,364.442c1.412,18.874-11.2,25.6-22.065,25.988l-290.851,6.759c-4.835-.258-7.761-2.427-8.524-6.759-6.285-37.234-35.413-33.377-63.128-32.06C214.266,361.6,156,357.249,98.728,337.906c-6.628-2.339-12.139-5.235-5.971-13.952l18.47-28.874c4.079-7.742,3.121-14.941-4.891-21.377L64.005,237.278c-5.842-4.758-9.227-11.556-7.928-22.242l4.4-37.253c.85-9.151,2.757-18.112,7.835-26.5l17.143-39.7c4.1-9.66,5.907-19.853,7.3-30.142-.217-6.714,6.432-7.37,13.579-7.587,16.06.52,31.707-8.856,47.084-24.681,20.112-16.653,43.036-21.761,70.721-7.312l84.482,53.95c8.759,5.519,2.6,10.591,0,15.771-4.748,9.309-4.938,20.169,4.4,34.267l35.147,47.029c34.373,43.208,77.556,53.4,124.76,48.518l41.922-4.12a19.715,19.715,0,0,0,13.5-7.327L550.636,199.3l84.9-6.419c18.887-1.667,38.112-1.674,59.867,10.786l80.086,41.371c11.072,4.786,13.126,11.952,9.164,20.706L761.28,323.954c-7.285,17.185-19.579,23.209-36.2,19.592L667.045,329.7c-10.234-3.053-14.151.027-12.819,8.205Z" fill="none" stroke="#a0a0a0" stroke-width="4"/>
    </g>
    <g id="Bandera-meta" transform="translate(484.78 375.439)">
      <g id="Bandera-meta-2" data-name="Bandera-meta" transform="translate(0.517 1.215) rotate(-2)">
        <rect id="Rectangle" width="21" height="13" transform="translate(-0.5 -0.5)" fill="none" stroke="#000" stroke-width="1"/>
        <rect id="Rectangle-2" data-name="Rectangle" width="4" height="4" transform="translate(0 8)"/>
        <rect id="Rectangle-3" data-name="Rectangle" width="4" height="4" transform="translate(4 4)"/>
        <rect id="Rectangle-4" data-name="Rectangle" width="4" height="4"/>
        <rect id="Rectangle-5" data-name="Rectangle" width="4" height="4" transform="translate(0 4)" fill="#f0f0f0"/>
        <rect id="Rectangle-6" data-name="Rectangle" width="4" height="4" transform="translate(16 8)"/>
        <rect id="Rectangle-7" data-name="Rectangle" width="4" height="4" transform="translate(16)"/>
        <rect id="Rectangle-8" data-name="Rectangle" width="4" height="4" transform="translate(16 4)" fill="#f0f0f0"/>
        <rect id="Rectangle-9" data-name="Rectangle" width="4" height="4" transform="translate(4)" fill="#f0f0f0"/>
        <rect id="Rectangle-10" data-name="Rectangle" width="4" height="4" transform="translate(4 8)" fill="#f0f0f0"/>
        <rect id="Rectangle-11" data-name="Rectangle" width="4" height="4" transform="translate(8 8)"/>
        <rect id="Rectangle-12" data-name="Rectangle" width="4" height="4" transform="translate(12 4)"/>
        <rect id="Rectangle-13" data-name="Rectangle" width="4" height="4" transform="translate(8)"/>
        <rect id="Rectangle-14" data-name="Rectangle" width="4" height="4" transform="translate(8 4)" fill="#f0f0f0"/>
        <rect id="Rectangle-15" data-name="Rectangle" width="4" height="4" transform="translate(12)" fill="#f0f0f0"/>
        <rect id="Rectangle-16" data-name="Rectangle" width="4" height="4" transform="translate(12 8)" fill="#f0f0f0"/>
      </g>
    </g>
    <g id="Sentido" transform="translate(424.28 375.957)">
      <g id="Sentido-2" data-name="Sentido" transform="translate(0 0.715) rotate(-2)">
        <path id="Path" d="M20.476,0,14,6.477l6.476,6.477" fill="none" stroke="#000" stroke-linecap="round" stroke-linejoin="round" stroke-width="3" fill-rule="evenodd"/>
        <path id="Path-2" data-name="Path" d="M13.476,0,7,6.477l6.476,6.477" fill="none" stroke="#000" stroke-linecap="round" stroke-linejoin="round" stroke-width="3" fill-rule="evenodd"/>
        <path id="Path-3" data-name="Path" d="M6.477,0,0,6.477l6.477,6.477" fill="none" stroke="#000" stroke-linecap="round" stroke-linejoin="round" stroke-width="3" fill-rule="evenodd"/>
      </g>
    </g>
    <g id="Curvas" transform="translate(33.5 67.301)">
      <g id="curva-1" transform="translate(291 355)">
        <rect id="Rectangle-17" data-name="Rectangle" width="25" height="25" fill="#d0021b"/>
        <text id="_1" data-name="1" transform="translate(9.336 18)" fill="#fff" font-size="14" font-family="Helvetica"><tspan x="0" y="0">1</tspan></text>
      </g>
      <g id="curva-2" transform="translate(310 273)">
        <rect id="Rectangle-18" data-name="Rectangle" width="25" height="25" fill="#d0021b"/>
        <text id="_1-2" data-name="1" transform="translate(8.489 18)" fill="#fff" font-size="14" font-family="Helvetica"><tspan x="0" y="0">2</tspan></text>
      </g>
      <g id="curva-3" transform="translate(36 270)">
        <rect id="Rectangle-19" data-name="Rectangle" width="25" height="25" fill="#d0021b"/>
        <text id="_1-3" data-name="1" transform="translate(8.524 18)" fill="#fff" font-size="14" font-family="Helvetica"><tspan x="0" y="0">3</tspan></text>
      </g>
      <g id="curva-4" transform="translate(117 216)">
        <rect id="Rectangle-20" data-name="Rectangle" width="25" height="25" fill="#d0021b"/>
        <text id="_1-4" data-name="1" transform="translate(8.237 18)" fill="#fff" font-size="14" font-family="Helvetica"><tspan x="0" y="0">4</tspan></text>
      </g>
      <g id="curva-5" transform="translate(0 165)">
        <rect id="Rectangle-21" data-name="Rectangle" width="25" height="25" fill="#d0021b"/>
        <text id="_1-5" data-name="1" transform="translate(8.545 18)" fill="#fff" font-size="14" font-family="Helvetica"><tspan x="0" y="0">5</tspan></text>
      </g>
      <g id="curva-6" transform="translate(39)">
        <rect id="Rectangle-22" data-name="Rectangle" width="25" height="25" fill="#d0021b"/>
        <text id="_1-6" data-name="1" transform="translate(8.258 18)" fill="#fff" font-size="14" font-family="Helvetica"><tspan x="0" y="0">6</tspan></text>
      </g>
      <g id="curva-7" transform="translate(117 35)">
        <rect id="Rectangle-23" data-name="Rectangle" width="25" height="25" fill="#d0021b"/>
        <text id="_1-7" data-name="1" transform="translate(8.545 18)" fill="#fff" font-size="14" font-family="Helvetica"><tspan x="0" y="0">7</tspan></text>
      </g>
      <g id="curva-8" transform="translate(168)">
        <rect id="Rectangle-24" data-name="Rectangle" width="25" height="25" fill="#d0021b"/>
        <text id="_1-8" data-name="1" transform="translate(8.293 18)" fill="#fff" font-size="14" font-family="Helvetica"><tspan x="0" y="0">8</tspan></text>
      </g>
      <g id="curva-9" transform="translate(316 35)">
        <rect id="Rectangle-25" data-name="Rectangle" width="25" height="25" fill="#d0021b"/>
        <text id="_1-9" data-name="1" transform="translate(8.265 18)" fill="#fff" font-size="14" font-family="Helvetica"><tspan x="0" y="0">9</tspan></text>
      </g>
      <g id="curva-10" transform="translate(251 65)">
        <rect id="Rectangle-26" data-name="Rectangle" width="25" height="25" fill="#d0021b"/>
        <text id="_1-10" data-name="1" transform="translate(4.968 18)" fill="#fff" font-size="14" font-family="Helvetica"><tspan x="0" y="0">10</tspan></text>
      </g>
      <g id="curva-11" transform="translate(513 204)">
        <rect id="Rectangle-27" data-name="Rectangle" width="25" height="25" fill="#d0021b"/>
        <text id="_1-11" data-name="1" transform="translate(6.172 18)" fill="#fff" font-size="14" font-family="Helvetica"><tspan x="0" y="0">11</tspan></text>
      </g>
      <g id="curva-12" transform="translate(513 106)">
        <rect id="Rectangle-28" data-name="Rectangle" width="25" height="25" fill="#d0021b"/>
        <text id="_1-12" data-name="1" transform="translate(5.325 18)" fill="#fff" font-size="14" font-family="Helvetica"><tspan x="0" y="0">12</tspan></text>
      </g>
      <g id="curva-13" transform="translate(792 188)">
        <rect id="Rectangle-29" data-name="Rectangle" width="25" height="25" fill="#d0021b"/>
        <text id="_1-13" data-name="1" transform="translate(5.36 18)" fill="#fff" font-size="14" font-family="Helvetica"><tspan x="0" y="0">13</tspan></text>
      </g>
      <g id="curva-14" transform="translate(731 312)">
        <rect id="Rectangle-30" data-name="Rectangle" width="25" height="25" fill="#d0021b"/>
        <text id="_1-14" data-name="1" transform="translate(5.073 18)" fill="#fff" font-size="14" font-family="Helvetica"><tspan x="0" y="0">14</tspan></text>
      </g>
      <g id="curva-15" transform="translate(604 248)">
        <rect id="Rectangle-31" data-name="Rectangle" width="25" height="25" fill="#d0021b"/>
        <text id="_1-15" data-name="1" transform="translate(5.381 18)" fill="#fff" font-size="14" font-family="Helvetica"><tspan x="0" y="0">15</tspan></text>
      </g>
      <g id="curva-16" transform="translate(654 340)">
        <rect id="Rectangle-32" data-name="Rectangle" width="25" height="25" fill="#d0021b"/>
        <text id="_1-16" data-name="1" transform="translate(5.094 18)" fill="#fff" font-size="14" font-family="Helvetica"><tspan x="0" y="0">16</tspan></text>
      </g>
    </g>
  </g>
</svg>
