<?xml version="1.0" standalone="no"?>
<!DOCTYPE svg PUBLIC "-//W3C//DTD SVG 20010904//EN"
 "http://www.w3.org/TR/2001/REC-SVG-20010904/DTD/svg10.dtd">
<svg version="1.0" xmlns="http://www.w3.org/2000/svg"
 width="1089.000000pt" height="1280.000000pt" viewBox="0 0 1089.000000 1280.000000"
 preserveAspectRatio="xMidYMid meet">
<g transform="translate(0.000000,1280.000000) scale(0.100000,-0.100000)"
fill="#000000" stroke="none">
<path d="M9598 12631 c-76 -83 -138 -154 -138 -159 0 -4 83 -80 185 -168 102
-87 185 -163 185 -169 0 -9 -5315 -6526 -5664 -6945 -199 -238 -356 -409 -552
-600 -263 -257 -453 -402 -803 -616 -416 -254 -678 -435 -807 -559 -71 -68
-1986 -2343 -1982 -2355 5 -15 1288 -1042 1298 -1038 18 6 1886 2355 1939
2438 193 300 289 494 452 912 157 404 265 617 463 911 171 256 29 76 3291
4158 385 482 1152 1442 1704 2133 552 691 1010 1256 1017 1254 7 -2 92 -72
189 -157 97 -84 183 -154 191 -155 13 -1 304 339 304 355 0 10 -1107 903
-1123 907 -6 1 -74 -65 -149 -147z"/>
</g>
</svg>
